<svg width="19" height="19" viewBox="0 0 19 19" fill="none" xmlns="http://www.w3.org/2000/svg">
<path d="M19.0005 15.7031L14.0005 12.8164V18.5899L19.0005 15.7031ZM9.66366 12.7864L9.20912 12.9947L9.66366 12.7864ZM6.83732 6.61985L6.38279 6.82818L6.83732 6.61985ZM0.000488281 4.20312H2.292V3.20312H0.000488281V4.20312ZM6.38279 6.82818L9.20912 12.9947L10.1182 12.5781L7.29185 6.41152L6.38279 6.82818ZM14.209 16.2031H14.5005V15.2031H14.209V16.2031ZM9.20912 12.9947C10.1052 14.9497 12.0584 16.2031 14.209 16.2031V15.2031C12.4494 15.2031 10.8513 14.1776 10.1182 12.5781L9.20912 12.9947ZM2.292 4.20312C4.05153 4.20312 5.64967 5.22864 6.38279 6.82818L7.29185 6.41152C6.39582 4.45654 4.44254 3.20312 2.292 3.20312V4.20312Z" fill="white"/>
<path d="M19.0005 3.70312L14.0005 6.58988V0.816374L19.0005 3.70312ZM9.66366 6.61985L9.20912 6.41152L9.66366 6.61985ZM6.83732 12.7864L6.38279 12.5781L6.83732 12.7864ZM0.000488281 15.2031H2.292V16.2031H0.000488281V15.2031ZM6.38279 12.5781L9.20912 6.41152L10.1182 6.82818L7.29185 12.9947L6.38279 12.5781ZM14.209 3.20312H14.5005V4.20312H14.209V3.20312ZM9.20912 6.41152C10.1052 4.45654 12.0584 3.20312 14.209 3.20312V4.20312C12.4494 4.20312 10.8513 5.22864 10.1182 6.82818L9.20912 6.41152ZM2.292 15.2031C4.05153 15.2031 5.64967 14.1776 6.38279 12.5781L7.29185 12.9947C6.39582 14.9497 4.44254 16.2031 2.292 16.2031V15.2031Z" fill="white"/>
</svg>
